<svg xmlns="http://www.w3.org/2000/svg" version="1.1" xmlns:xlink="http://www.w3.org/1999/xlink" xmlns:svgjs="http://svgjs.dev/svgjs" width="1440" height="3272" preserveAspectRatio="none" viewBox="0 0 1440 3272"><g mask="url(&quot;#SvgjsMask1061&quot;)" fill="none"><path d="M890.01 1577.59L981.03 1577.59L981.03 1598.99L890.01 1598.99z" fill="rgba(77, 248, 206, 1)"></path><path d="M1067.77 976.74 a39.86 39.86 0 1 0 79.72 0 a39.86 39.86 0 1 0 -79.72 0z" stroke="rgba(248, 58, 162, 1)"></path><path d="M228.54 1614.5L301.52 1614.5L301.52 1749.07L228.54 1749.07z" fill="rgba(255, 227, 195, 1)"></path><path d="M544.36 143.07 a32.59 32.59 0 1 0 65.18 0 a32.59 32.59 0 1 0 -65.18 0z" fill="rgba(248, 58, 162, 1)"></path><path d="M1307.36 1677.47L1328.57 1677.47L1328.57 1698.68L1307.36 1698.68z" stroke="rgba(255, 227, 195, 1)"></path><path d="M991.48 2724.12L993.71 2724.12L993.71 2826.48L991.48 2826.48z" stroke="rgba(255, 227, 195, 1)"></path><path d="M123.75 919.52L137.39 919.52L137.39 933.16L123.75 933.16z" stroke="rgba(248, 58, 162, 1)"></path><path d="M743.68 214.34L879.56 214.34L879.56 350.22L743.68 350.22z" stroke="rgba(255, 227, 195, 1)"></path><path d="M1388 347.95L1492.99 347.95L1492.99 452.94L1388 452.94z" fill="rgba(77, 248, 206, 1)"></path><path d="M468.85-20.44a40.59 40.59 0 1 0-39.27 71.04z" stroke="rgba(255, 227, 195, 1)"></path><path d="M687.86 1301.1L735.18 1301.1L735.18 1351.56L687.86 1351.56z" fill="rgba(248, 58, 162, 1)"></path><path d="M858.72 1392.21L948.93 1392.21L948.93 1482.42L858.72 1482.42z" fill="rgba(248, 58, 162, 1)"></path><path d="M66.41 124.41L137.71 124.41L137.71 195.71L66.41 195.71z" stroke="rgba(248, 58, 162, 1)"></path><path d="M812.77 1468.34 a73.22 73.22 0 1 0 146.44 0 a73.22 73.22 0 1 0 -146.44 0z" fill="rgba(255, 227, 195, 1)"></path><path d="M732.79 604.8L830.09 604.8L830.09 702.1L732.79 702.1z" fill="rgba(248, 58, 162, 1)"></path><path d="M599.59 1944.4 a2.58 2.58 0 1 0 5.16 0 a2.58 2.58 0 1 0 -5.16 0z" stroke="rgba(248, 58, 162, 1)"></path><path d="M1192.84 1697.04a15.11 15.11 0 1 0 25.72 15.88z" fill="rgba(77, 248, 206, 1)"></path><path d="M989.91 1303 a128.67 128.67 0 1 0 257.34 0 a128.67 128.67 0 1 0 -257.34 0z" stroke="rgba(255, 227, 195, 1)"></path><path d="M939.08 2632.95a65.13 65.13 0 1 0 87.69-96.32z" fill="rgba(248, 58, 162, 1)"></path><path d="M408.79 3252.66 a107.01 107.01 0 1 0 214.02 0 a107.01 107.01 0 1 0 -214.02 0z" stroke="rgba(248, 58, 162, 1)"></path><path d="M1009.08 1382.94L1035.67 1382.94L1035.67 1409.53L1009.08 1409.53z" fill="rgba(77, 248, 206, 1)"></path><path d="M602.49 514.1L714.92 514.1L714.92 517.37L602.49 517.37z" stroke="rgba(77, 248, 206, 1)"></path><path d="M894.17 488.85a11.76 11.76 0 1 0 23.5-0.94z" stroke="rgba(248, 58, 162, 1)"></path><path d="M552.59 3110.79 a127.78 127.78 0 1 0 255.56 0 a127.78 127.78 0 1 0 -255.56 0z" stroke="rgba(248, 58, 162, 1)"></path><path d="M153.86 2257.37a20.66 20.66 0 1 0 10.4-39.99z" fill="rgba(255, 227, 195, 1)"></path><path d="M404.03 2486.08 a82.58 82.58 0 1 0 165.16 0 a82.58 82.58 0 1 0 -165.16 0z" fill="rgba(255, 227, 195, 1)"></path><path d="M210.7 1025.65a131.4 131.4 0 1 0 261.2-28.94z" fill="rgba(248, 58, 162, 1)"></path><path d="M88.74 1373.76L89.71 1373.76L89.71 1374.73L88.74 1374.73z" fill="rgba(255, 227, 195, 1)"></path><path d="M494.48 2237.33L527.68 2237.33L527.68 2270.53L494.48 2270.53z" stroke="rgba(248, 58, 162, 1)"></path></g><defs><mask id="SvgjsMask1061"><rect width="1440" height="3272" fill="#ffffff"></rect></mask></defs></svg>