<svg xmlns="http://www.w3.org/2000/svg" version="1.1" xmlns:xlink="http://www.w3.org/1999/xlink" xmlns:svgjs="http://svgjs.dev/svgjs" width="1440" height="3272" preserveAspectRatio="none" viewBox="0 0 1440 3272">
  <g mask="url(#SvgjsMask1061)" fill="none">
    <path d="M890.01 1577.59L981.03 1577.59L981.03 1598.99L890.01 1598.99z" fill="rgba(77, 248, 206, 1)"></path>
    <path d="M1067.77 976.74 a39.86 39.86 0 1 0 79.72 0 a39.86 39.86 0 1 0 -79.72 0z" stroke="rgba(248, 58, 162, 1)"></path>
    <path d="M228.54 1614.5L301.52 1614.5L301.52 1749.07L228.54 1749.07z" fill="rgba(255, 227, 195, 1)"></path>
    <path d="M544.36 143.07 a32.59 32.59 0 1 0 65.18 0 a32.59 32.59 0 1 0 -65.18 0z" fill="rgba(248, 58, 162, 1)"></path>
    <path d="M1307.36 1677.47L1328.57 1677.47L1328.57 1698.68L1307.36 1698.68z" stroke="rgba(255, 227, 195, 1)"></path>
    <path d="M991.48 2724.12L993.71 2724.12L993.71 2826.48L991.48 2826.48z" stroke="rgba(255, 227, 195, 1)"></path>
    <path d="M123.75 919.52L137.39 919.52L137.39 933.16L123.75 933.16z" stroke="rgba(248, 58, 162, 1)"></path>
    <path d="M743.68 214.34L879.56 214.34L879.56 350.22L743.68 350.22z" stroke="rgba(255, 227, 195, 1)"></path>
    <path d="M1388 347.95L1492.99 347.95L1492.99 452.94L1388 452.94z" fill="rgba(77, 248, 206, 1)"></path>
    <path d="M468.85-20.44a40.59 40.59 0 1 0-39.27 71.04z" stroke="rgba(255, 227, 195, 1)"></path>
    <path d="M687.86 1301.1L735.18 1301.1L735.18 1351.56L687.86 1351.56z" fill="rgba(248, 58, 162, 1)"></path>
    <path d="M858.72 1392.21L948.93 1392.21L948.93 1482.42L858.72 1482.42z" fill="rgba(248, 58, 162, 1)"></path>
    <path d="M66.41 124.41L137.71 124.41L137.71 195.71L66.41 195.71z" stroke="rgba(248, 58, 162, 1)"></path>
    <path d="M812.77 1468.34 a73.22 73.22 0 1 0 146.44 0 a73.22 73.22 0 1 0 -146.44 0z" fill="rgba(255, 227, 195, 1)"></path>
    <path d="M732.79 604.8L830.09 604.8L830.09 702.1L732.79 702.1z" fill="rgba(248, 58, 162, 1)"></path>
    <path d="M599.59 1944.4 a2.58 2.58 0 1 0 5.16 0 a2.58 2.58 0 1 0 -5.16 0z" stroke="rgba(248, 58, 162, 1)"></path>
    <path d="M1192.84 1697.04a15.11 15.11 0 1 0 25.72 15.88z" fill="rgba(77, 248, 206, 1)"></path>
    <path d="M989.91 1303 a128.67 128.67 0 1 0 257.34 0 a128.67 128.67 0 1 0 -257.34 0z" stroke="rgba(255, 227, 195, 1)"></path>
    <path d="M939.08 2632.95a65.13 65.13 0 1 0 87.69-96.32z" fill="rgba(248, 58, 162, 1)"></path>
    <path d="M408.79 3252.66 a107.01 107.01 0 1 0 214.02 0 a107.01 107.01 0 1 0 -214.02 0z" stroke="rgba(248, 58, 162, 1)"></path>
    <path d="M1009.08 1382.94L1035.67 1382.94L1035.67 1409.53L1009.08 1409.53z" fill="rgba(77, 248, 206, 1)"></path>
    <path d="M602.49 514.1L714.92 514.1L714.92 517.37L602.49 517.37z" stroke="rgba(77, 248, 206, 1)"></path>
    <path d="M894.17 488.85a11.76 11.76 0 1 0 23.5-0.94z" stroke="rgba(248, 58, 162, 1)"></path>
    <path d="M552.59 3110.79 a127.78 127.78 0 1 0 255.56 0 a127.78 127.78 0 1 0 -255.56 0z" stroke="rgba(248, 58, 162, 1)"></path>
    <path d="M153.86 2257.37a20.66 20.66 0 1 0 10.4-39.99z" fill="rgba(255, 227, 195, 1)"></path>
    <path d="M404.03 2486.08 a82.58 82.58 0 1 0 165.16 0 a82.58 82.58 0 1 0 -165.16 0z" fill="rgba(255, 227, 195, 1)"></path>
    <path d="M210.7 1025.65a131.4 131.4 0 1 0 261.2-28.94z" fill="rgba(248, 58, 162, 1)"></path>
    <path d="M88.74 1373.76L89.71 1373.76L89.71 1374.73L88.74 1374.73z" fill="rgba(255, 227, 195, 1)"></path>
    <path d="M494.48 2237.33L527.68 2237.33L527.68 2270.53L494.48 2270.53z" stroke="rgba(248, 58, 162, 1)"></path>
    <g id="dots" fill="#ffffff" opacity="0.95">
      <circle cx="100" cy="150" r="1.6"></circle>
      <circle cx="300" cy="400" r="1.2"></circle>
      <circle cx="500" cy="800" r="1.0"></circle>
      <circle cx="800" cy="200" r="1.4"></circle>
      <circle cx="1100" cy="600" r="1.1"></circle>
      <circle cx="1300" cy="1000" r="1.0"></circle>
      <circle cx="200" cy="1800" r="1.3"></circle>
      <circle cx="900" cy="2500" r="1.2"></circle>
      <circle cx="400" cy="1200" r="1.1"></circle>
      <circle cx="600" cy="1600" r="1.2"></circle>
      <circle cx="1200" cy="2000" r="1.0"></circle>
      <circle cx="50" cy="900" r="1.3"></circle>
      <circle cx="1400" cy="300" r="1.0"></circle>
      <circle cx="1000" cy="1200" r="1.2"></circle>
      <circle cx="150" cy="300" r="1.0"></circle>
      <circle cx="250" cy="600" r="1.1"></circle>
      <circle cx="350" cy="1000" r="1.0"></circle>
      <circle cx="450" cy="1400" r="1.2"></circle>
      <circle cx="550" cy="1800" r="1.1"></circle>
      <circle cx="650" cy="2200" r="1.3"></circle>
      <circle cx="750" cy="2600" r="1.0"></circle>
      <circle cx="850" cy="200" r="1.2"></circle>
      <circle cx="950" cy="500" r="1.1"></circle>
      <circle cx="1050" cy="800" r="1.0"></circle>
      <circle cx="1150" cy="1100" r="1.2"></circle>
      <circle cx="1250" cy="1400" r="1.1"></circle>
      <circle cx="1350" cy="1700" r="1.0"></circle>
      <circle cx="200" cy="2400" r="1.2"></circle>
      <circle cx="400" cy="2800" r="1.1"></circle>
      <circle cx="600" cy="3200" r="1.0"></circle>
      <circle cx="800" cy="600" r="1.2"></circle>
      <circle cx="1000" cy="900" r="1.1"></circle>
      <circle cx="1200" cy="1300" r="1.0"></circle>
      <circle cx="140" cy="1500" r="1.2"></circle>
      <circle cx="340" cy="1700" r="1.1"></circle>
      <circle cx="540" cy="1900" r="1.0"></circle>
      <circle cx="740" cy="2100" r="1.2"></circle>
      <circle cx="940" cy="2300" r="1.1"></circle>
      <circle cx="1140" cy="2500" r="1.0"></circle>
      <circle cx="1340" cy="2700" r="1.2"></circle>
      <circle cx="460" cy="400" r="1.0"></circle>
      <circle cx="660" cy="700" r="1.1"></circle>
      <circle cx="860" cy="1000" r="1.2"></circle>
      <circle cx="1060" cy="1400" r="1.0"></circle>
      <circle cx="1260" cy="1800" r="1.1"></circle>
      <circle cx="1360" cy="2100" r="1.2"></circle>
      <!-- ~200 randomly distributed small dots -->
      <circle cx="72" cy="289" r="1.2"/>
      <circle cx="119" cy="840" r="1.1"/>
      <circle cx="430" cy="210" r="1.0"/>
      <circle cx="980" cy="460" r="1.2"/>
      <circle cx="123" cy="1570" r="1.1"/>
      <circle cx="520" cy="2120" r="1.0"/>
      <circle cx="1410" cy="310" r="1.2"/>
      <circle cx="890" cy="1390" r="1.0"/>
      <circle cx="650" cy="890" r="1.3"/>
      <circle cx="360" cy="2460" r="1.0"/>
      <circle cx="210" cy="430" r="1.1"/>
      <circle cx="1045" cy="2620" r="1.0"/>
      <circle cx="1320" cy="1710" r="1.2"/>
      <circle cx="45" cy="2060" r="1.1"/>
      <circle cx="980" cy="310" r="1.0"/>
      <circle cx="760" cy="520" r="1.2"/>
      <circle cx="111" cy="1290" r="1.0"/>
      <circle cx="1340" cy="500" r="1.1"/>
      <circle cx="420" cy="1760" r="1.0"/>
      <circle cx="610" cy="1230" r="1.2"/>
      <circle cx="980" cy="1910" r="1.1"/>
      <circle cx="150" cy="90" r="1.0"/>
      <circle cx="300" cy="340" r="1.1"/>
      <circle cx="470" cy="980" r="1.2"/>
      <circle cx="690" cy="60" r="1.0"/>
      <circle cx="820" cy="890" r="1.1"/>
      <circle cx="1210" cy="2200" r="1.3"/>
      <circle cx="1030" cy="540" r="1.0"/>
      <circle cx="560" cy="250" r="1.1"/>
      <circle cx="210" cy="1990" r="1.2"/>
      <circle cx="1375" cy="780" r="1.0"/>
      <circle cx="950" cy="1080" r="1.1"/>
      <circle cx="740" cy="1640" r="1.0"/>
      <circle cx="260" cy="720" r="1.2"/>
      <circle cx="980" cy="900" r="1.1"/>
      <circle cx="1250" cy="2800" r="1.0"/>
      <circle cx="420" cy="2600" r="1.2"/>
      <circle cx="540" cy="380" r="1.1"/>
      <circle cx="880" cy="2300" r="1.0"/>
      <circle cx="160" cy="1180" r="1.2"/>
      <circle cx="330" cy="1420" r="1.0"/>
      <circle cx="470" cy="2980" r="1.1"/>
      <circle cx="1120" cy="160" r="1.0"/>
      <circle cx="640" cy="2010" r="1.2"/>
      <circle cx="770" cy="2860" r="1.1"/>
      <circle cx="101" cy="520" r="1.0"/>
      <circle cx="219" cy="880" r="1.2"/>
      <circle cx="405" cy="230" r="1.1"/>
      <circle cx="599" cy="1470" r="1.0"/>
      <circle cx="811" cy="1720" r="1.2"/>
      <circle cx="940" cy="246" r="1.1"/>
      <circle cx="1230" cy="640" r="1.0"/>
      <circle cx="133" cy="2540" r="1.2"/>
      <circle cx="358" cy="1980" r="1.0"/>
      <circle cx="578" cy="2700" r="1.1"/>
      <circle cx="915" cy="1340" r="1.0"/>
      <circle cx="1022" cy="1880" r="1.2"/>
      <circle cx="141" cy="320" r="1.1"/>
      <circle cx="270" cy="1620" r="1.0"/>
      <circle cx="389" cy="840" r="1.2"/>
      <circle cx="611" cy="430" r="1.0"/>
      <circle cx="733" cy="2110" r="1.1"/>
      <circle cx="999" cy="60" r="1.2"/>
      <circle cx="1165" cy="980" r="1.0"/>
      <circle cx="1289" cy="1470" r="1.1"/>
      <circle cx="54" cy="450" r="1.0"/>
      <circle cx="212" cy="312" r="1.2"/>
      <circle cx="397" cy="512" r="1.1"/>
      <circle cx="631" cy="920" r="1.0"/>
      <circle cx="754" cy="1270" r="1.1"/>
      <circle cx="887" cy="2190" r="1.2"/>
      <circle cx="1034" cy="260" r="1.0"/>
      <circle cx="1199" cy="2030" r="1.1"/>
      <circle cx="135" cy="860" r="1.2"/>
      <circle cx="299" cy="2480" r="1.1"/>
      <circle cx="421" cy="188" r="1.0"/>
      <circle cx="678" cy="540" r="1.2"/>
      <circle cx="854" cy="980" r="1.1"/>
      <circle cx="1066" cy="1420" r="1.0"/>
      <circle cx="1241" cy="920" r="1.2"/>
      <circle cx="139" cy="2100" r="1.1"/>
      <circle cx="312" cy="900" r="1.0"/>
      <circle cx="468" cy="1500" r="1.2"/>
      <circle cx="594" cy="1740" r="1.1"/>
      <circle cx="706" cy="2780" r="1.0"/>
      <circle cx="842" cy="320" r="1.2"/>
      <circle cx="957" cy="680" r="1.1"/>
      <circle cx="1122" cy="1130" r="1.0"/>
      <circle cx="1278" cy="1570" r="1.1"/>
      <circle cx="63" cy="1720" r="1.2"/>
      <circle cx="241" cy="2040" r="1.0"/>
      <circle cx="398" cy="260" r="1.1"/>
      <circle cx="551" cy="630" r="1.2"/>
      <circle cx="689" cy="980" r="1.0"/>
      <circle cx="803" cy="1390" r="1.1"/>
      <circle cx="928" cy="2160" r="1.2"/>
      <circle cx="1003" cy="2800" r="1.0"/>
      <circle cx="116" cy="540" r="1.1"/>
      <circle cx="274" cy="1460" r="1.0"/>
      <circle cx="432" cy="920" r="1.2"/>
      <circle cx="599" cy="2200" r="1.1"/>
      <circle cx="743" cy="164" r="1.0"/>
      <circle cx="871" cy="430" r="1.2"/>
      <circle cx="1027" cy="740" r="1.1"/>
      <circle cx="1189" cy="1210" r="1.0"/>
      <circle cx="1332" cy="2040" r="1.2"/>
      <circle cx="89" cy="980" r="1.1"/>
      <circle cx="264" cy="2600" r="1.0"/>
      <circle cx="417" cy="1740" r="1.2"/>
      <circle cx="593" cy="380" r="1.1"/>
      <circle cx="728" cy="1190" r="1.0"/>
      <circle cx="842" cy="1560" r="1.2"/>
      <circle cx="977" cy="2020" r="1.1"/>
      <circle cx="1108" cy="2480" r="1.0"/>
      <circle cx="126" cy="320" r="1.2"/>
      <circle cx="281" cy="720" r="1.1"/>
      <circle cx="444" cy="1320" r="1.0"/>
      <circle cx="597" cy="1920" r="1.1"/>
      <circle cx="739" cy="2360" r="1.2"/>
      <circle cx="891" cy="1040" r="1.0"/>
      <circle cx="1036" cy="170" r="1.1"/>
      <circle cx="1204" cy="430" r="1.2"/>
      <circle cx="1369" cy="2900" r="1.0"/>
      <circle cx="74" cy="600" r="1.1"/>
      <circle cx="238" cy="980" r="1.2"/>
      <circle cx="401" cy="2200" r="1.0"/>
      <circle cx="552" cy="1460" r="1.1"/>
      <circle cx="712" cy="820" r="1.2"/>
      <circle cx="861" cy="2940" r="1.0"/>
      <circle cx="1001" cy="1310" r="1.1"/>
      <circle cx="1176" cy="1990" r="1.2"/>
      <circle cx="1338" cy="960" r="1.0"/>
      <circle cx="52" cy="250" r="1.1"/>
      <circle cx="206" cy="430" r="1.0"/>
      <circle cx="359" cy="1610" r="1.2"/>
      <circle cx="521" cy="2080" r="1.1"/>
      <circle cx="683" cy="620" r="1.0"/>
      <circle cx="844" cy="1420" r="1.2"/>
      <circle cx="1009" cy="240" r="1.1"/>
      <circle cx="1168" cy="880" r="1.0"/>
      <circle cx="1321" cy="1760" r="1.2"/>
      <circle cx="98" cy="1780" r="1.1"/>
      <circle cx="259" cy="2140" r="1.0"/>
      <circle cx="412" cy="1020" r="1.2"/>
      <circle cx="566" cy="580" r="1.1"/>
      <circle cx="719" cy="1490" r="1.0"/>
      <circle cx="853" cy="1840" r="1.2"/>
      <circle cx="995" cy="2700" r="1.1"/>
      <circle cx="1138" cy="390" r="1.0"/>
      <circle cx="1297" cy="990" r="1.2"/>
      <circle cx="131" cy="100" r="1.1"/>
      <circle cx="287" cy="560" r="1.0"/>
      <circle cx="443" cy="940" r="1.2"/>
      <circle cx="599" cy="1600" r="1.1"/>
      <circle cx="755" cy="2180" r="1.0"/>
      <circle cx="911" cy="420" r="1.2"/>
      <circle cx="1067" cy="760" r="1.1"/>
      <circle cx="1223" cy="1140" r="1.0"/>
      <circle cx="1379" cy="1500" r="1.2"/>
    </g>
  </g>
  <defs>
    <mask id="SvgjsMask1061"><rect width="1440" height="3272" fill="#ffffff"></rect></mask>
  </defs>
</svg>
